# xmcd
#
# Track frame offsets: 
#        150
#        13297
#        25590
#        37010
#        46293
#        56658
#        66775
#        78333
#        88370
#        101248
#        113255
#        119968
#        141163
#        154818
#
# Disc length: 2252 seconds
#
# Revision: 1
# Processed by: cddbd v1.5.1PL0 Copyright (c) Steve Scherf et al.
# Submitted via: ExactAudioCopy v0.95a5
#
DISCID=c208ca0e
DTITLE=Various Artist - It's nonstop Salsa
DYEAR=1994
DGENRE=Latin
TTITLE0=Pancho Cantaneo y los Cubaztecas - Salsa Mania
TTITLE1=Pancho Cantaneo y los Cubaztecas - Amor con Salsa
TTITLE2=Nicaragua Boys - El Porompompero
TTITLE3=Nicaragua Boys - Carnavalito Gitano
TTITLE4=Nicaragua Boys - ole tus lunares
TTITLE5=Nicaragua Boys - Linda Malaguena
TTITLE6=Orchestra Barreto - Que problema
TTITLE7=Las Marimbas de Guatamala - Vamos Jose
TTITLE8=Pancho Cantaneo y los Cubaztecas - El Botellon
TTITLE9=Orchestra Barreto - Son Retozon
TTITLE10=Pancho Cantaneo y los Cubaztecas - No meu pe de serra
TTITLE11=Pancho Cantaneo y los Cubaztecas - Moliendo Cafe
TTITLE12=Nicaragua Boys - Granada mia
TTITLE13=Nicaragua Boys - Una aventura más
EXTD=YEAR: 1994
EXTT0=
EXTT1=
EXTT2=
EXTT3=
EXTT4=
EXTT5=
EXTT6=
EXTT7=
EXTT8=
EXTT9=
EXTT10=
EXTT11=
EXTT12=
EXTT13=
PLAYORDER=
